<svg xmlns="http://www.w3.org/2000/svg" width="805" height="600"><rect width="805" height="600" x="0" y="0" fill="#FFFFFF" id="backgorund"/><g transform="translate(402.5,300)" id="viz"><path fill="#cccccc" display="" d="M0.999992072947904,-191.3307201165001A191.33333333333334,191.33333333333334,0,0,1,182.27534267902274,58.17339508477459L92.23955847518116,28.918995431170845A96.66666666666667,96.66666666666667,0,0,0,0.9999920729479188,-96.66149419649216Z"><title>18</title></path><path fill="rgb(62, 204, 202)" display="" d="M181.65731358946047,60.075493039215786A191.33333333333334,191.33333333333334,0,0,1,173.54698744560415,80.5598385859838L87.88771079716369,40.25164264074899A96.66666666666667,96.66666666666667,0,0,0,91.62152938561889,30.82109338561205Z"><title>63</title></path><path fill="rgb(62, 205, 202)" display="" d="M172.69543561282325,82.36947834569347A191.33333333333334,191.33333333333334,0,0,1,162.08169254822323,101.67580530857715L82.14982141830136,50.94949740071674A96.66666666666667,96.66666666666667,0,0,0,87.0361589643828,42.061282400458666Z"><title>61</title></path><path fill="rgb(63, 217, 196)" display="" d="M161.01004745331906,103.36444777351831A191.33333333333334,191.33333333333334,0,0,1,131.70385357985117,138.7895507473872L66.89830895580054,69.77865506943152A96.66666666666667,96.66666666666667,0,0,0,81.0781763233972,52.63813986565786Z"><title>21</title></path><path fill="#cccccc" display="" d="M130.2459278821529,140.15863410636348A191.33333333333334,191.33333333333334,0,0,1,-22.987990995618308,189.94735248070666L-11.122790792034037,96.02462168340519A96.66666666666667,96.66666666666667,0,0,0,65.4403832581023,71.14773842840775Z"><title>19</title></path><path fill="rgb(64, 235, 188)" display="" d="M-24.972204669157392,189.6966880006242A191.33333333333334,191.33333333333334,0,0,1,-46.61343971382343,185.56840162724416L-23.070160601792466,93.87338352404235A96.66666666666667,96.66666666666667,0,0,0,-13.107004465573166,95.77395720332271Z"><title/></path><path fill="#cccccc" display="" d="M-48.550590680062314,185.07102579566984A191.33333333333334,191.33333333333334,0,0,1,-187.7543472139728,36.83408132014963L-94.76197355639509,19.094837316445574A96.66666666666667,96.66666666666667,0,0,0,-25.00731156803139,93.37600769246804Z"><title>17</title></path><path fill="#cccccc" display="" d="M-188.12910687238136,34.869522391976616A191.33333333333334,191.33333333333334,0,0,1,-182.27534267902277,-58.17339508477449L-92.23955847518118,-28.918995431170803A96.66666666666667,96.66666666666667,0,0,0,-95.13673321480366,17.1302783882726Z"><title>16</title></path><path fill="rgb(63, 225, 193)" display="" d="M-181.65731358946047,-60.07549303921576A191.33333333333334,191.33333333333334,0,0,1,-162.08169254822326,-101.67580530857711L-82.14982141830137,-50.949497400716716A96.66666666666667,96.66666666666667,0,0,0,-91.6215293856189,-30.821093385612027Z"><title>15</title></path><path fill="rgb(64, 235, 188)" display="" d="M-161.01004745331906,-103.36444777351831A191.33333333333334,191.33333333333334,0,0,1,-148.06027253644692,-121.18828384327223L-75.1163802817478,-60.84384815092069A96.66666666666667,96.66666666666667,0,0,0,-81.0781763233972,-52.63813986565786Z"><title>14</title></path><path fill="rgb(63, 219, 196)" display="" d="M-146.78543466273584,-122.72929811302662A191.33333333333334,191.33333333333334,0,0,1,-113.2703861762325,-154.20202352735714L-57.62521133450757,-77.6130109137494A96.66666666666667,96.66666666666667,0,0,0,-73.84154240803676,-62.38486242067505Z"><title>20</title></path><path fill="rgb(63, 227, 191)" display="" d="M-111.65236501372242,-155.3775847131334A191.33333333333334,191.33333333333334,0,0,1,-93.05057711816583,-167.1826382804767L-47.44332970683678,-84.22336321219204A96.66666666666667,96.66666666666667,0,0,0,-56.00719017199746,-78.78857209952568Z"><title>26</title></path><path fill="rgb(64, 229, 191)" display="" d="M-91.29797765113561,-168.14613799090716A191.33333333333334,191.33333333333334,0,0,1,-71.36330487322527,-177.52668295784594L-36.51323842841775,-89.50546276017997A96.66666666666667,96.66666666666667,0,0,0,-45.69073023980652,-85.1868629226225Z"><title>23</title></path><path fill="rgb(63, 220, 195)" display="" d="M-69.50376664222216,-178.26292622693023A191.33333333333334,191.33333333333334,0,0,1,-48.55059068006199,-185.07102579566993L-25.007311568031202,-93.37600769246808A96.66666666666667,96.66666666666667,0,0,0,-34.653700197414594,-90.24170602926428Z"><title>37</title></path><path fill="rgb(63, 221, 194)" display="" d="M-46.61343971382318,-185.56840162724424A191.33333333333334,191.33333333333334,0,0,1,-24.972204669157065,-189.69668800062425L-13.107004465572977,-95.77395720332274A96.66666666666667,96.66666666666667,0,0,0,-23.070160601792363,-93.8733835240424Z"><title>36</title></path><path fill="rgb(64, 229, 191)" display="" d="M-22.98799099561806,-189.9473524807067A191.33333333333334,191.33333333333334,0,0,1,-0.999992072947545,-191.3307201165001L-0.999992072947716,-96.66149419649216A96.66666666666667,96.66666666666667,0,0,0,-11.122790792033932,-96.0246216834052Z"><title>24</title></path><path fill="rgb(64, 232, 189)" display="none" d="M0.9999920729479248,-287.99826391118063A288,288,0,0,1,35.10364684012458,-285.85264381937037L23.238660850960528,-191.9316087038084A193.33333333333334,193.33333333333334,0,0,0,0.9999920729479279,-193.33074715014118Z"><title/></path><path fill="rgb(62, 198, 205)" display="" d="M37.0878605136637,-285.6019793392879A288,288,0,0,1,168.47212163157246,-233.5832704475144L112.827951408283,-156.9956405725583A193.33333333333334,193.33333333333334,0,0,0,25.222874524499662,-191.6809442237259Z"><title>No effect</title></path><path fill="rgb(57, 130, 236)" display="" d="M170.09014279408265,-232.4077092617381A288,288,0,0,1,274.2116401192008,88.0453089218153L184.17748142213358,58.79143742737896A193.33333333333334,193.33333333333334,0,0,0,114.44597257079315,-155.820079386782Z"><title>Improve</title></path><path fill="rgb(62, 204, 202)" display="none" d="M273.5936110296385,89.9474068762566A288,288,0,0,1,261.0143961664748,121.7188769002185L175.356666011306,81.4114086794785A193.33333333333334,193.33333333333334,0,0,0,183.5594523325713,60.6935353818202Z"><title/></path><path fill="rgb(62, 205, 202)" display="" d="M260.1628443336939,123.5285166599282A288,288,0,0,1,243.700799263761,153.47286547857263L163.77037122448536,102.74747338388443A193.33333333333334,193.33333333333334,0,0,0,174.50511417852508,83.22104843918817Z"><title>Improve</title></path><path fill="rgb(63, 217, 196)" display="" d="M242.62915416885687,155.16150794351378A288,288,0,0,1,197.87734092173446,209.2571574635947L133.0729662975093,140.2475077089063A193.33333333333334,193.33333333333334,0,0,0,162.69872612958122,104.43611584882555Z"><title>Improve</title></path><path fill="rgb(61, 184, 211)" display="" d="M196.41941522403624,210.62624082257094A288,288,0,0,1,37.087860513663635,285.6019793392879L25.22287452449962,191.68094422372593A193.33333333333334,193.33333333333334,0,0,0,131.61504059981107,141.61659106788252Z"><title>Improve</title></path><path fill="rgb(63, 220, 195)" display="" d="M35.10364684012452,285.85264381937037A288,288,0,0,1,-35.10364684012461,285.85264381937037L-23.238660850960546,191.9316087038084A193.33333333333334,193.33333333333334,0,0,0,23.238660850960486,191.9316087038084Z"><title>No effect</title></path><path fill="rgb(64, 235, 188)" display="" d="M-37.08786051366373,285.6019793392879A288,288,0,0,1,-70.6536802726262,279.1989567744362L-47.11082621114627,187.50559413383098A193.33333333333334,193.33333333333334,0,0,0,-25.22287452449968,191.6809442237259Z"><title>Improve</title></path><path fill="rgb(64, 233, 189)" display="" d="M-72.5908312388651,278.7015809428619A288,288,0,0,1,-105.08946296076572,268.14213539579686L-70.24002569933876,180.12250433395047A193.33333333333334,193.33333333333334,0,0,0,-49.0479771773852,187.00821830225667Z"><title>Worsen</title></path><path fill="rgb(60, 169, 218)" display="" d="M-106.94900119176893,267.4058921267125A288,288,0,0,1,-273.59361102963857,89.94740687625657L-183.5594523325713,60.6935353818202A193.33333333333334,193.33333333333334,0,0,0,-72.099563930342,179.38626106486612Z"><title>Improve</title></path><path fill="rgb(64, 233, 189)" display="" d="M-274.2116401192008,88.04530892181535A288,288,0,0,1,-282.7096430427447,54.94777275416994L-189.71894827023115,37.20884901492027A193.33333333333334,193.33333333333334,0,0,0,-184.17748142213358,58.791437427378966Z"><title>No effect</title></path><path fill="rgb(63, 213, 198)" display="" d="M-283.08440270115324,52.983213825996984A288,288,0,0,1,-283.08440270115324,-52.98321382599691L-190.09370792863976,-35.24429008674724A193.33333333333334,193.33333333333334,0,0,0,-190.09370792863973,35.24429008674729Z"><title>Improve</title></path><path fill="rgb(64, 234, 189)" display="" d="M-282.7096430427447,-54.947772754169875A288,288,0,0,1,-274.2116401192008,-88.04530892181528L-184.1774814221336,-58.79143742737892A193.33333333333334,193.33333333333334,0,0,0,-189.71894827023118,-37.208849014920226Z"><title>No effect</title></path><path fill="rgb(63, 225, 193)" display="" d="M-273.59361102963857,-89.9474068762565A288,288,0,0,1,-243.70079926376104,-153.47286547857263L-163.7703712244854,-102.7474733838844A193.33333333333334,193.33333333333334,0,0,0,-183.55945233257134,-60.69353538182015Z"><title>Improve</title></path><path fill="rgb(64, 235, 188)" display="" d="M-242.62915416885687,-155.16150794351375A288,288,0,0,1,-222.54389517685678,-182.80649528808374L-149.60131985177694,-122.46314905466099A193.33333333333334,193.33333333333334,0,0,0,-162.69872612958122,-104.43611584882555Z"><title>Improve</title></path><path fill="rgb(63, 219, 196)" display="" d="M-221.26905730314576,-184.3475095578381A288,288,0,0,1,-170.09014279408245,-232.4077092617382L-114.44597257079305,-155.82007938678208A193.33333333333334,193.33333333333334,0,0,0,-148.32648197806589,-124.00416332441534Z"><title>Improve</title></path><path fill="rgb(63, 227, 191)" display="" d="M-168.4721216315723,-233.58327044751454A288,288,0,0,1,-139.62052150764163,-251.89305265118804L-94.01409748992525,-168.9352753303247A193.33333333333334,193.33333333333334,0,0,0,-112.82795140828287,-156.9956405725584Z"><title>No effect</title></path><path fill="rgb(64, 229, 191)" display="" d="M-137.8679220406113,-252.8565523616185A288,288,0,0,1,-106.94900119176853,-267.4058921267127L-72.09956393034173,-179.38626106486623A193.33333333333334,193.33333333333334,0,0,0,-92.26149802289491,-169.8987750407552Z"><title>Improve</title></path><path fill="rgb(63, 220, 195)" display="" d="M-105.08946296076529,-268.142135395797A288,288,0,0,1,-72.59083123886468,-278.701580942862L-49.047977177384915,-187.00821830225672A193.33333333333334,193.33333333333334,0,0,0,-70.24002569933849,-180.1225043339506Z"><title>No effect</title></path><path fill="rgb(63, 221, 194)" display="" d="M-70.65368027262578,-279.19895677443634A288,288,0,0,1,-37.08786051366329,-285.60197933928794L-25.222874524499385,-191.68094422372596A193.33333333333334,193.33333333333334,0,0,0,-47.110826211145984,-187.50559413383107Z"><title>No effect</title></path><path fill="rgb(64, 229, 191)" display="" d="M-35.10364684012417,-285.85264381937037A288,288,0,0,1,-0.9999920729474484,-287.99826391118063L-0.9999920729476081,-193.33074715014118A193.33333333333334,193.33333333333334,0,0,0,-23.23866085096025,-191.93160870380842Z"><title>Improve</title></path></g><g id="labels" transform="translate(402.5,300)" text-anchor="middle"><text transform="rotate(90) translate(48.333333333333336,0) rotate(180)"><tspan x="0" y="4" style="font-family: Arial, sans-serif; font-size: 10px; fill: black; font-weight: normal; font-style: italic;"/></text><text transform="rotate(-35.99999999999999) translate(145,0) rotate(0)"><tspan x="0" y="4" style="font-family: Arial, sans-serif; font-size: 10px; fill: black; font-weight: normal; font-style: italic;">18</tspan></text><text transform="rotate(21.599999999999994) translate(145,0) rotate(0)"><tspan x="0" y="4" style="font-family: Arial, sans-serif; font-size: 10px; fill: black; font-weight: normal; font-style: italic;">63</tspan></text><text transform="rotate(28.800000000000026) translate(145,0) rotate(0)"><tspan x="0" y="4" style="font-family: Arial, sans-serif; font-size: 10px; fill: black; font-weight: normal; font-style: italic;">61</tspan></text><text transform="rotate(39.60000000000002) translate(145,0) rotate(0)"><tspan x="0" y="4" style="font-family: Arial, sans-serif; font-size: 10px; fill: black; font-weight: normal; font-style: italic;">21</tspan></text><text transform="rotate(72) translate(145,0) rotate(0)"><tspan x="0" y="4" style="font-family: Arial, sans-serif; font-size: 10px; fill: black; font-weight: normal; font-style: italic;">19</tspan></text><text transform="rotate(100.80000000000001) translate(145,0) rotate(180)"><tspan x="0" y="4" style="font-family: Arial, sans-serif; font-size: 10px; fill: black; font-weight: normal; font-style: italic;"/></text><text transform="rotate(136.8) translate(145,0) rotate(180)"><tspan x="0" y="4" style="font-family: Arial, sans-serif; font-size: 10px; fill: black; font-weight: normal; font-style: italic;">17</tspan></text><text transform="rotate(183.59999999999997) translate(145,0) rotate(180)"><tspan x="0" y="4" style="font-family: Arial, sans-serif; font-size: 10px; fill: black; font-weight: normal; font-style: italic;">16</tspan></text><text transform="rotate(205.2) translate(145,0) rotate(180)"><tspan x="0" y="4" style="font-family: Arial, sans-serif; font-size: 10px; fill: black; font-weight: normal; font-style: italic;">15</tspan></text><text transform="rotate(216) translate(145,0) rotate(180)"><tspan x="0" y="4" style="font-family: Arial, sans-serif; font-size: 10px; fill: black; font-weight: normal; font-style: italic;">14</tspan></text><text transform="rotate(226.80000000000007) translate(145,0) rotate(180)"><tspan x="0" y="4" style="font-family: Arial, sans-serif; font-size: 10px; fill: black; font-weight: normal; font-style: italic;">20</tspan></text><text transform="rotate(237.60000000000008) translate(145,0) rotate(180)"><tspan x="0" y="4" style="font-family: Arial, sans-serif; font-size: 10px; fill: black; font-weight: normal; font-style: italic;">26</tspan></text><text transform="rotate(244.80000000000007) translate(145,0) rotate(180)"><tspan x="0" y="4" style="font-family: Arial, sans-serif; font-size: 10px; fill: black; font-weight: normal; font-style: italic;">23</tspan></text><text transform="rotate(252.00000000000006) translate(145,0) rotate(180)"><tspan x="0" y="4" style="font-family: Arial, sans-serif; font-size: 10px; fill: black; font-weight: normal; font-style: italic;">37</tspan></text><text transform="rotate(259.2000000000001) translate(145,0) rotate(180)"><tspan x="0" y="4" style="font-family: Arial, sans-serif; font-size: 10px; fill: black; font-weight: normal; font-style: italic;">36</tspan></text><text transform="rotate(266.40000000000015) translate(145,0) rotate(180)"><tspan x="0" y="4" style="font-family: Arial, sans-serif; font-size: 10px; fill: black; font-weight: normal; font-style: italic;">24</tspan></text><text/><text transform="rotate(-68.4) translate(241.66666666666669,0) rotate(0)"><tspan x="0" y="4" style="font-family: Arial, sans-serif; font-size: 10px; fill: black; font-weight: normal; font-style: italic;">No effect</tspan></text><text transform="rotate(-18) translate(241.66666666666669,0) rotate(0)"><tspan x="0" y="4" style="font-family: Arial, sans-serif; font-size: 10px; fill: black; font-weight: normal; font-style: italic;">Improve</tspan></text><text/><text transform="rotate(28.800000000000026) translate(241.66666666666669,0) rotate(0)"><tspan x="0" y="4" style="font-family: Arial, sans-serif; font-size: 10px; fill: black; font-weight: normal; font-style: italic;">Improve</tspan></text><text transform="rotate(39.60000000000002) translate(241.66666666666669,0) rotate(0)"><tspan x="0" y="4" style="font-family: Arial, sans-serif; font-size: 10px; fill: black; font-weight: normal; font-style: italic;">Improve</tspan></text><text transform="rotate(64.80000000000001) translate(241.66666666666669,0) rotate(0)"><tspan x="0" y="4" style="font-family: Arial, sans-serif; font-size: 10px; fill: black; font-weight: normal; font-style: italic;">Improve</tspan></text><text transform="rotate(90) translate(241.66666666666669,0) rotate(180)"><tspan x="0" y="4" style="font-family: Arial, sans-serif; font-size: 10px; fill: black; font-weight: normal; font-style: italic;">No effect</tspan></text><text transform="rotate(100.80000000000001) translate(241.66666666666669,0) rotate(180)"><tspan x="0" y="4" style="font-family: Arial, sans-serif; font-size: 10px; fill: black; font-weight: normal; font-style: italic;">Improve</tspan></text><text transform="rotate(108.00000000000003) translate(241.66666666666669,0) rotate(180)"><tspan x="0" y="4" style="font-family: Arial, sans-serif; font-size: 10px; fill: black; font-weight: normal; font-style: italic;">Worsen</tspan></text><text transform="rotate(136.8) translate(241.66666666666669,0) rotate(180)"><tspan x="0" y="4" style="font-family: Arial, sans-serif; font-size: 10px; fill: black; font-weight: normal; font-style: italic;">Improve</tspan></text><text transform="rotate(165.59999999999997) translate(241.66666666666669,0) rotate(180)"><tspan x="0" y="4" style="font-family: Arial, sans-serif; font-size: 10px; fill: black; font-weight: normal; font-style: italic;">No effect</tspan></text><text transform="rotate(180) translate(241.66666666666669,0) rotate(180)"><tspan x="0" y="4" style="font-family: Arial, sans-serif; font-size: 10px; fill: black; font-weight: normal; font-style: italic;">Improve</tspan></text><text transform="rotate(194.40000000000003) translate(241.66666666666669,0) rotate(180)"><tspan x="0" y="4" style="font-family: Arial, sans-serif; font-size: 10px; fill: black; font-weight: normal; font-style: italic;">No effect</tspan></text><text transform="rotate(205.2) translate(241.66666666666669,0) rotate(180)"><tspan x="0" y="4" style="font-family: Arial, sans-serif; font-size: 10px; fill: black; font-weight: normal; font-style: italic;">Improve</tspan></text><text transform="rotate(216) translate(241.66666666666669,0) rotate(180)"><tspan x="0" y="4" style="font-family: Arial, sans-serif; font-size: 10px; fill: black; font-weight: normal; font-style: italic;">Improve</tspan></text><text transform="rotate(226.80000000000007) translate(241.66666666666669,0) rotate(180)"><tspan x="0" y="4" style="font-family: Arial, sans-serif; font-size: 10px; fill: black; font-weight: normal; font-style: italic;">Improve</tspan></text><text transform="rotate(237.60000000000008) translate(241.66666666666669,0) rotate(180)"><tspan x="0" y="4" style="font-family: Arial, sans-serif; font-size: 10px; fill: black; font-weight: normal; font-style: italic;">No effect</tspan></text><text transform="rotate(244.80000000000007) translate(241.66666666666669,0) rotate(180)"><tspan x="0" y="4" style="font-family: Arial, sans-serif; font-size: 10px; fill: black; font-weight: normal; font-style: italic;">Improve</tspan></text><text transform="rotate(252.00000000000006) translate(241.66666666666669,0) rotate(180)"><tspan x="0" y="4" style="font-family: Arial, sans-serif; font-size: 10px; fill: black; font-weight: normal; font-style: italic;">No effect</tspan></text><text transform="rotate(259.2000000000001) translate(241.66666666666669,0) rotate(180)"><tspan x="0" y="4" style="font-family: Arial, sans-serif; font-size: 10px; fill: black; font-weight: normal; font-style: italic;">No effect</tspan></text><text transform="rotate(266.40000000000015) translate(241.66666666666669,0) rotate(180)"><tspan x="0" y="4" style="font-family: Arial, sans-serif; font-size: 10px; fill: black; font-weight: normal; font-style: italic;">Improve</tspan></text></g></svg>